<?xml version="1.0" encoding="utf-8"?>
<svg stroke-linecap="round" font-size="12" font-family="Segoe UI" width="531.77666666666664" height="485.96" xmlns:xlink="http://www.w3.org/1999/xlink" xmlns="http://www.w3.org/2000/svg">
  <defs />  
  <g transform="translate(96,20)">
    <g id="0-0-&gt;0-15">
      <path d="M 171.885333333333,25.96 L 146.255530919907,53.4205025858142" fill="none" stroke="#A0A0A0" stroke-width="1" />
      <path d="M 140.114666666667,60 L 149.862070243238,55.4187203190113 C 147.230271277564,54.3302602529608 145.28079056225,52.5107449186675 144.013628097295,49.9601743161313 z" fill="#A0A0A0" stroke="#A0A0A0" stroke-width="1" stroke-linejoin="round" />
    </g>
    <g id="0-0-&gt;15-0">
      <path d="M 194.600333333333,25.96 L 216.706855528905,53.0292108517202" fill="none" stroke="#A0A0A0" stroke-width="1" />
      <path d="M 222.399666666667,60 L 219.172449468389,49.7245404406839 C 217.739565032354,52.1858314239037 215.674146025456,53.8725902795368 212.976192447696,54.7848170075833 z" fill="#A0A0A0" stroke="#A0A0A0" stroke-width="1" stroke-linejoin="round" />
    </g>
    <g id="0-15-&gt;0-30">
      <path d="M 119.563,85.96 L 102.341895155359,112.454007453294" fill="none" stroke="#A0A0A0" stroke-width="1" />
      <path d="M 97.437,120 L 106.240657971157,113.795517239375 C 103.459819977093,113.180658587422 101.223970333625,111.727356319167 99.5331090407516,109.435610434612 z" fill="#A0A0A0" stroke="#A0A0A0" stroke-width="1" stroke-linejoin="round" />
    </g>
    <g id="0-15-&gt;15-15">
      <path d="M 139.465666666667,85.96 L 163.576021299667,113.254741093963" fill="none" stroke="#A0A0A0" stroke-width="1" />
      <path d="M 169.534333333333,120 L 165.911879476388,109.857129200552 C 164.575318915377,112.372028200087 162.576723683958,114.137453987839 159.916093782132,115.15340656381 z" fill="#A0A0A0" stroke="#A0A0A0" stroke-width="1" stroke-linejoin="round" />
    </g>
    <g id="15-0-&gt;15-15">
      <path d="M 221.750666666667,85.96 L 198.143708179094,113.198798254892" fill="none" stroke="#A0A0A0" stroke-width="1" />
      <path d="M 192.249333333333,120 L 201.821395048671,115.062831325773 C 199.151293622814,114.072038972782 197.136122735374,112.325557537001 195.775882386352,109.82338701843 z" fill="#A0A0A0" stroke="#A0A0A0" stroke-width="1" stroke-linejoin="round" />
    </g>
    <g id="15-0-&gt;30-0">
      <path d="M 242.302333333333,85.96 L 261.454996193815,112.684645851834" fill="none" stroke="#A0A0A0" stroke-width="1" />
      <path d="M 266.697666666667,120 L 264.123745762682,109.541752958548 C 262.538752363913,111.90795392993 260.371240023716,113.461337773738 257.621208742091,114.201904489972 z" fill="#A0A0A0" stroke="#A0A0A0" stroke-width="1" stroke-linejoin="round" />
    </g>
    <g id="0-30-&gt;0-40">
      <path d="M 75.1546666666667,145.96 L 45.4111681705941,173.844529840068" fill="none" stroke="#A0A0A0" stroke-width="1" />
      <path d="M 38.8453333333334,180 L 48.8764698902595,176.078737527747 C 46.3230896757692,174.817246112255 44.499246665419,172.871813567881 43.4049408592089,170.242439894626 z" fill="#A0A0A0" stroke="#A0A0A0" stroke-width="1" stroke-linejoin="round" />
    </g>
    <g id="0-30-&gt;15-30">
      <path d="M 97.94322,145.96 L 116.290474443378,172.5888163184" fill="none" stroke="#A0A0A0" stroke-width="1" />
      <path d="M 121.39678,180 L 119.016966573353,169.495882328613 C 117.388427581393,171.832326606308 115.192521305363,173.345306030492 112.429247745264,174.034820601166 z" fill="#A0A0A0" stroke="#A0A0A0" stroke-width="1" stroke-linejoin="round" />
    </g>
    <g id="15-15-&gt;15-30">
      <path d="M 170.040553333333,145.96 L 147.105627994329,173.12335413226" fill="none" stroke="#A0A0A0" stroke-width="1" />
      <path d="M 141.299446666667,180 L 150.807046305287,174.939807403694 C 148.124390345105,173.983529143765 146.086865643552,172.263179120754 144.694472200629,169.778757334661 z" fill="#A0A0A0" stroke="#A0A0A0" stroke-width="1" stroke-linejoin="round" />
    </g>
    <g id="15-15-&gt;30-15">
      <path d="M 190.951333333333,145.96 L 211.572782773752,172.857542748373" fill="none" stroke="#A0A0A0" stroke-width="1" />
      <path d="M 217.048666666667,180 L 214.138776675263,169.630210212452 C 212.630924588808,172.046300690163 210.514640958697,173.668784806582 207.789925784928,174.497662561709 z" fill="#A0A0A0" stroke="#A0A0A0" stroke-width="1" stroke-linejoin="round" />
    </g>
    <g id="30-0-&gt;30-15">
      <path d="M 265.399666666667,145.96 L 243.293144471095,173.02921085172" fill="none" stroke="#A0A0A0" stroke-width="1" />
      <path d="M 237.600333333333,180 L 247.023807552304,174.784817007583 C 244.325853974544,173.872590279537 242.260434967646,172.185831423904 240.827550531611,169.724540440684 z" fill="#A0A0A0" stroke="#A0A0A0" stroke-width="1" stroke-linejoin="round" />
    </g>
    <g id="30-0-&gt;40-0">
      <path d="M 287.033,145.96 L 310.13816421914,173.142546140165" fill="none" stroke="#A0A0A0" stroke-width="1" />
      <path d="M 315.967,180 L 312.538273070082,169.790013142023 C 311.154083309486,172.279014913371 309.122245128794,174.006077366959 306.442758528007,174.971200502788 z" fill="#A0A0A0" stroke="#A0A0A0" stroke-width="1" stroke-linejoin="round" />
    </g>
    <g id="0-40-&gt;15-40">
      <path d="M 33.94322,205.96 L 52.2904744433778,232.5888163184" fill="none" stroke="#A0A0A0" stroke-width="1" />
      <path d="M 57.39678,240 L 55.016966573353,229.495882328613 C 53.3884275813926,231.832326606308 51.1925213053631,233.345306030492 48.4292477452644,234.034820601166 z" fill="#A0A0A0" stroke="#A0A0A0" stroke-width="1" stroke-linejoin="round" />
    </g>
    <g id="0-40-&gt;Score.game_rcv">
      <path d="M 22.3019627777778,205.96 L -20.3570293151904,411.188346297856" fill="none" stroke="#A0A0A0" stroke-width="1" />
      <path d="M -22.1886294444444,420 L -16.2372276554312,411.023318166175 C -19.0515991370949,411.459694465152 -21.6624594932858,410.916998130559 -24.0698087240041,409.395229162393 z" fill="#A0A0A0" stroke="#A0A0A0" stroke-width="1" stroke-linejoin="round" />
    </g>
    <g id="15-30-&gt;15-40">
      <path d="M 116.494666666667,205.96 L 86.7511681705941,233.844529840068" fill="none" stroke="#A0A0A0" stroke-width="1" />
      <path d="M 80.1853333333333,240 L 90.2164698902595,236.078737527747 C 87.6630896757692,234.817246112255 85.839246665419,232.871813567881 84.7449408592089,230.242439894626 z" fill="#A0A0A0" stroke="#A0A0A0" stroke-width="1" stroke-linejoin="round" />
    </g>
    <g id="15-30-&gt;30-30">
      <path d="M 140.86678,205.96 L 162.804204504528,233.009845258358" fill="none" stroke="#A0A0A0" stroke-width="1" />
      <path d="M 168.47322,240 L 165.28104933465,229.713598955744 C 163.839782984772,232.169991110881 161.768626024285,233.849699405835 159.06757845319,234.752723840607 z" fill="#A0A0A0" stroke="#A0A0A0" stroke-width="1" stroke-linejoin="round" />
    </g>
    <g id="30-15-&gt;30-30">
      <path d="M 216.616,205.96 L 195.00625542799,232.972180715013" fill="none" stroke="#A0A0A0" stroke-width="1" />
      <path d="M 189.384,240 L 198.754425713316,234.690092095787 C 196.047413840581,233.805107445085 193.965097015399,232.13925398494 192.507475237772,229.692531715352 z" fill="#A0A0A0" stroke="#A0A0A0" stroke-width="1" stroke-linejoin="round" />
    </g>
    <g id="30-15-&gt;40-15">
      <path d="M 238.033,205.96 L 261.13816421914,233.142546140165" fill="none" stroke="#A0A0A0" stroke-width="1" />
      <path d="M 266.967,240 L 263.538273070082,229.790013142023 C 262.154083309486,232.279014913371 260.122245128794,234.006077366959 257.442758528007,234.971200502788 z" fill="#A0A0A0" stroke="#A0A0A0" stroke-width="1" stroke-linejoin="round" />
    </g>
    <g id="40-0-&gt;40-15">
      <path d="M 316.399666666667,205.96 L 294.293144471095,233.02921085172" fill="none" stroke="#A0A0A0" stroke-width="1" />
      <path d="M 288.600333333333,240 L 298.023807552304,234.784817007583 C 295.325853974544,233.872590279537 293.260434967646,232.185831423904 291.827550531611,229.724540440684 z" fill="#A0A0A0" stroke="#A0A0A0" stroke-width="1" stroke-linejoin="round" />
    </g>
    <g id="40-0-&gt;Score.game_srv">
      <path d="M 329.049127361111,205.96 L 361.435774235911,411.110096774345" fill="none" stroke="#A0A0A0" stroke-width="1" />
      <path d="M 362.839205972222,420 L 365.230905476612,409.498582310911 C 362.752796936008,410.902180961558 360.118751535814,411.318012587132 357.32876927603,410.746077187633 z" fill="#A0A0A0" stroke="#A0A0A0" stroke-width="1" stroke-linejoin="round" />
    </g>
    <g id="15-40-&gt;30-40">
      <path d="M 77.1566666666667,265.96 L 99.761673736353,293.086008483624" fill="none" stroke="#A0A0A0" stroke-width="1" />
      <path d="M 105.523333333333,300 L 102.194374455078,289.757049605368 C 100.785968775816,292.232429284071 98.7373786968898,293.939587683176 96.048604218299,294.878524802684 z" fill="#A0A0A0" stroke="#A0A0A0" stroke-width="1" stroke-linejoin="round" />
    </g>
    <g id="15-40-&gt;Score.game_rcv">
      <path d="M 59.7615437037037,265.96 L -14.2395808928805,411.972157564146" fill="none" stroke="#A0A0A0" stroke-width="1" />
      <path d="M -18.3082103703704,420 L -10.2195809794464,412.888454839047 C -13.0502709023835,412.574917486737 -15.4288908833774,411.369397641555 -17.3554409224278,409.2718953035 z" fill="#A0A0A0" stroke="#A0A0A0" stroke-width="1" stroke-linejoin="round" />
    </g>
    <g id="30-30-&gt;30-40">
      <path d="M 165.444553333333,265.96 L 136.395887972224,293.775511038406" fill="none" stroke="#A0A0A0" stroke-width="1" />
      <path d="M 129.895446666667,300 L 139.884598766883,295.972986178477 C 137.318034485053,294.738539379971 135.473741459396,292.812482696842 134.351719689911,290.194816129093 z" fill="#A0A0A0" stroke="#A0A0A0" stroke-width="1" stroke-linejoin="round" />
    </g>
    <g id="30-30-&gt;40-30">
      <path d="M 190.106553333333,265.96 L 213.382145684284,293.161705123822" fill="none" stroke="#A0A0A0" stroke-width="1" />
      <path d="M 219.233446666667,300 L 215.771243297876,289.801316367632 C 214.39522640668,292.294845719024 212.369064961887,294.028564528619 209.692758963495,295.002472796417 z" fill="#A0A0A0" stroke="#A0A0A0" stroke-width="1" stroke-linejoin="round" />
    </g>
    <g id="40-15-&gt;40-30">
      <path d="M 267.689553333333,265.96 L 246.248318067243,292.952742676572" fill="none" stroke="#A0A0A0" stroke-width="1" />
      <path d="M 240.650446666667,300 L 250.002418144386,294.657656929781 C 247.292356189232,293.782056958139 245.204279945254,292.123428395005 243.73818941245,289.681771240379 z" fill="#A0A0A0" stroke="#A0A0A0" stroke-width="1" stroke-linejoin="round" />
    </g>
    <g id="40-15-&gt;Score.game_srv">
      <path d="M 284.265614259259,265.96 L 354.710277601151,411.894890394267" fill="none" stroke="#A0A0A0" stroke-width="1" />
      <path d="M 358.622719074074,420 L 357.877832817819,409.255459783442 C 355.911034579778,411.315269435315 353.509520622524,412.474511353218 350.673290946056,412.733185537151 z" fill="#A0A0A0" stroke="#A0A0A0" stroke-width="1" stroke-linejoin="round" />
    </g>
    <g id="30-40-&gt;40-40">
      <path d="M 127.51578,325.96 L 150.951946938741,353.179706084485" fill="none" stroke="#A0A0A0" stroke-width="1" />
      <path d="M 156.82422,360 L 153.330713894386,349.81199651109 C 151.962360852151,352.309739705039 149.941533025332,354.04967246393 147.268230413928,355.031794787765 z" fill="#A0A0A0" stroke="#A0A0A0" stroke-width="1" stroke-linejoin="round" />
    </g>
    <g id="30-40-&gt;Score.game_rcv">
      <path d="M 101.063982222222,325.96 L -2.75217264392472,414.172367238984" fill="none" stroke="#A0A0A0" stroke-width="1" />
      <path d="M -9.61064888888886,420 L 0.59993927707825,416.573064152189 C -1.88881964229278,415.188437793794 -3.61552564555666,413.156296684175 -4.5801787327134,410.476640823332 z" fill="#A0A0A0" stroke="#A0A0A0" stroke-width="1" stroke-linejoin="round" />
    </g>
    <g id="40-30-&gt;40-40">
      <path d="M 216.85378,325.96 L 187.970718614224,353.758904124905" fill="none" stroke="#A0A0A0" stroke-width="1" />
      <path d="M 181.48622,360 L 191.46503884918,355.947448411772 C 188.895325410534,354.719570586271 187.046111817913,352.798237663538 185.917398071318,350.183449643573 z" fill="#A0A0A0" stroke="#A0A0A0" stroke-width="1" stroke-linejoin="round" />
    </g>
    <g id="40-30-&gt;Score.game_srv">
      <path d="M 244.893644722222,325.96 L 343.617966031288,414.009537765273" fill="none" stroke="#A0A0A0" stroke-width="1" />
      <path d="M 350.334688611111,420 L 345.534091182297,410.358720814826 C 344.505441917914,413.014467753447 342.730490144661,415.004607777099 340.20923586254,416.32914088578 z" fill="#A0A0A0" stroke="#A0A0A0" stroke-width="1" stroke-linejoin="round" />
    </g>
    <g id="40-40-&gt;Score.adv_rcv">
      <path d="M 149.334926156971,385.96 L 140.501125825805,393.614589927647 A 318.042263208641,318.042263208641 0 0 1 127.566672500344,404.239585661327 A 282.971214795237,282.971214795237 3.14159265358979 0 0 115.630967656552,414.064176567941" fill="none" stroke="#A0A0A0" stroke-width="1" />
      <path d="M 108.86591036312,420 L 119.020784436737,416.411332761459 C 116.510348905746,415.066407278079 114.751586407358,413.061945857803 113.744496941573,410.397948500631 z" fill="#A0A0A0" stroke="#A0A0A0" stroke-width="1" stroke-linejoin="round" />
    </g>
    <g id="40-40-&gt;Score.adv_srv">
      <path d="M 186.484620997758,385.96 L 194.736750641199,392.492917410401 A 1956.69740575847,1956.69740575847 3.14159265358979 0 0 208.5882179741,403.357628499381 A 729.331159558874,729.331159558874 0 0 1 222.333287875574,414.307497056226" fill="none" stroke="#A0A0A0" stroke-width="1" />
      <path d="M 229.304328704254,420 L 224.088729091843,410.576756360838 C 223.176621645022,413.274750266792 221.489954106126,415.34024384566 219.028726475155,416.773237097442 z" fill="#A0A0A0" stroke="#A0A0A0" stroke-width="1" stroke-linejoin="round" />
    </g>
    <g id="Score.adv_rcv-&gt;40-40">
      <path d="M 117.86485655137,420 L 120.308279831958,417.897609021151 A 257.042221512037,257.042221512037 0 0 1 131.347762969297,408.918552622399 A 243.320764131942,243.320764131942 3.14159265358979 0 0 142.372732909648,399.92268195288 L 151.694398199251,391.851294360058" fill="none" stroke="#A0A0A0" stroke-width="1" />
      <path d="M 158.498268477494,385.96 L 148.320059563865,389.481940276401 C 150.821613849613,390.843313578096 152.567182548889,392.85927514202 153.556765661694,395.529824968172 z" fill="#A0A0A0" stroke="#A0A0A0" stroke-width="1" stroke-linejoin="round" />
    </g>
    <g id="Score.adv_rcv-&gt;Score.game_rcv">
      <path d="M 63,432.98 L 35.2266666666667,432.98" fill="none" stroke="#A0A0A0" stroke-width="1" />
      <path d="M 26.2266666666667,432.98 L 36.2266666666667,436.98 C 35.2266666666667,434.313333333333 35.2266666666667,431.646666666667 36.2266666666667,428.98 z" fill="#A0A0A0" stroke="#A0A0A0" stroke-width="1" stroke-linejoin="round" />
    </g>
    <g id="Score.adv_srv-&gt;40-40">
      <path d="M 219.813578942917,420 L 217.040241635128,417.730602000496 A 554.150036366757,554.150036366757 3.14159265358979 0 0 204.882457763791,408.06327964997 A 1306.53028496984,1306.53028496984 0 0 1 192.646063577158,398.493621422368 L 183.870934609709,391.546431634785" fill="none" stroke="#A0A0A0" stroke-width="1" />
      <path d="M 176.814605423094,385.96 L 182.172112681651,395.303292566034 C 183.04331510826,392.591813736506 184.698554111159,390.501049533064 187.137829690349,389.03099995571 z" fill="#A0A0A0" stroke="#A0A0A0" stroke-width="1" stroke-linejoin="round" />
    </g>
    <g id="Score.adv_srv-&gt;Score.game_srv">
      <path d="M 275.91,432.98 L 305,432.98" fill="none" stroke="#A0A0A0" stroke-width="1" />
      <path d="M 314,432.98 L 304,428.98 C 305,431.646666666667 305,434.313333333333 304,436.98 z" fill="#A0A0A0" stroke="#A0A0A0" stroke-width="1" stroke-linejoin="round" />
    </g>
    <g id="0-0">
      <rect x="159" rx="3" ry="3" width="50" height="25.96" fill="#FFFFFF" stroke="#A5A6A9" stroke-width="1" />
      <text x="175" y="17.950000000000003" fill="#3D3D3D">0-0</text>
    </g>
    <g id="0-15">
      <rect x="103" y="60" rx="3" ry="3" width="50" height="25.96" fill="#FFFFFF" stroke="#A5A6A9" stroke-width="1" />
      <text x="115" y="77.95" fill="#3D3D3D">0-15</text>
    </g>
    <g id="15-0">
      <rect x="208" y="60" rx="3" ry="3" width="50" height="25.96" fill="#FFFFFF" stroke="#A5A6A9" stroke-width="1" />
      <text x="220" y="77.95" fill="#3D3D3D">15-0</text>
    </g>
    <g id="0-30">
      <rect x="64" y="120" rx="3" ry="3" width="50" height="25.96" fill="#FFFFFF" stroke="#A5A6A9" stroke-width="1" />
      <text x="76" y="137.95" fill="#3D3D3D">0-30</text>
    </g>
    <g id="15-15">
      <rect x="155.66" y="120" rx="3" ry="3" width="50.68" height="25.96" fill="#FFFFFF" stroke="#A5A6A9" stroke-width="1" />
      <text x="165.66" y="137.95" fill="#3D3D3D">15-15</text>
    </g>
    <g id="30-0">
      <rect x="251" y="120" rx="3" ry="3" width="50" height="25.96" fill="#FFFFFF" stroke="#A5A6A9" stroke-width="1" />
      <text x="263" y="137.95" fill="#3D3D3D">30-0</text>
    </g>
    <g id="0-40">
      <rect y="180" rx="3" ry="3" width="50" height="25.96" fill="#FFFFFF" stroke="#A5A6A9" stroke-width="1" />
      <text x="12" y="197.95" fill="#3D3D3D">0-40</text>
    </g>
    <g id="15-30">
      <rect x="105" y="180" rx="3" ry="3" width="50.680000000000007" height="25.96" fill="#FFFFFF" stroke="#A5A6A9" stroke-width="1" />
      <text x="115" y="197.95" fill="#3D3D3D">15-30</text>
    </g>
    <g id="30-15">
      <rect x="201.66" y="180" rx="3" ry="3" width="50.68" height="25.96" fill="#FFFFFF" stroke="#A5A6A9" stroke-width="1" />
      <text x="211.66" y="197.95" fill="#3D3D3D">30-15</text>
    </g>
    <g id="40-0">
      <rect x="302" y="180" rx="3" ry="3" width="50" height="25.96" fill="#FFFFFF" stroke="#A5A6A9" stroke-width="1" />
      <text x="314" y="197.95" fill="#3D3D3D">40-0</text>
    </g>
    <g id="15-40">
      <rect x="41" y="240" rx="3" ry="3" width="50.68" height="25.96" fill="#FFFFFF" stroke="#A5A6A9" stroke-width="1" />
      <text x="51" y="257.95" fill="#3D3D3D">15-40</text>
    </g>
    <g id="30-30">
      <rect x="153.66" y="240" rx="3" ry="3" width="50.68" height="25.96" fill="#FFFFFF" stroke="#A5A6A9" stroke-width="1" />
      <text x="163.66" y="257.95" fill="#3D3D3D">30-30</text>
    </g>
    <g id="40-15">
      <rect x="252.66" y="240" rx="3" ry="3" width="50.68" height="25.96" fill="#FFFFFF" stroke="#A5A6A9" stroke-width="1" />
      <text x="262.65999999999997" y="257.95" fill="#3D3D3D">40-15</text>
    </g>
    <g id="30-40">
      <rect x="91" y="300" rx="3" ry="3" width="50.68" height="25.96" fill="#FFFFFF" stroke="#A5A6A9" stroke-width="1" />
      <text x="101" y="317.95" fill="#3D3D3D">30-40</text>
    </g>
    <g id="40-30">
      <rect x="205" y="300" rx="3" ry="3" width="50.68" height="25.96" fill="#FFFFFF" stroke="#A5A6A9" stroke-width="1" />
      <text x="215" y="317.95" fill="#3D3D3D">40-30</text>
    </g>
    <g id="40-40">
      <rect x="142.66" y="360" rx="3" ry="3" width="50.68" height="25.96" fill="#FFFFFF" stroke="#A5A6A9" stroke-width="1" />
      <text x="152.66" y="377.95" fill="#3D3D3D">40-40</text>
    </g>
    <g id="Score.adv_rcv">
      <rect x="63" y="420" rx="3" ry="3" width="91.36" height="25.96" fill="#FFFFFF" stroke="#A5A6A9" stroke-width="1" />
      <text x="73" y="437.95" fill="#3D3D3D">Score.adv_rcv</text>
    </g>
    <g id="Score.adv_srv">
      <rect x="185" y="420" rx="3" ry="3" width="90.910000000000011" height="25.96" fill="#FFFFFF" stroke="#A5A6A9" stroke-width="1" />
      <text x="195" y="437.95" fill="#3D3D3D">Score.adv_srv</text>
    </g>
    <g id="Score.game_rcv">
      <rect x="-76" y="420" rx="3" ry="3" width="102.22666666666667" height="25.96" fill="#FFFFFF" stroke="#A5A6A9" stroke-width="1" />
      <text x="-66" y="437.95" fill="#3D3D3D">Score.game_rcv</text>
    </g>
    <g id="Score.game_srv">
      <rect x="314" y="420" rx="3" ry="3" width="101.77666666666667" height="25.96" fill="#FFFFFF" stroke="#A5A6A9" stroke-width="1" />
      <text x="324" y="437.95" fill="#3D3D3D">Score.game_srv</text>
    </g>
  </g>
</svg>